<?xml version="1.0" standalone="no"?>
<!DOCTYPE svg PUBLIC "-//W3C//DTD SVG 20010904//EN"
 "http://www.w3.org/TR/2001/REC-SVG-20010904/DTD/svg10.dtd">
<svg version="1.0" xmlns="http://www.w3.org/2000/svg"
 width="1097.000000pt" height="880.000000pt" viewBox="0 0 1097.000000 880.000000"
 preserveAspectRatio="xMidYMid meet">

<g transform="translate(0.000000,880.000000) scale(0.100000,-0.100000)"
fill="#000000" stroke="none">
<path d="M5231 8345 c-151 -43 -285 -162 -426 -380 -867 -1337 -2050 -3143
-3102 -4735 -187 -283 -438 -663 -559 -845 -205 -309 -377 -591 -402 -660 -25
-67 -42 -156 -42 -216 0 -192 195 -351 481 -395 137 -22 -194 -20 3809 -14
3713 5 4915 12 4985 28 28 7 86 26 130 42 205 79 299 200 298 385 0 95 -17
152 -83 285 -58 114 -83 150 -615 875 -845 1151 -2531 3469 -2960 4070 -39 55
-200 278 -356 495 -157 217 -347 483 -424 590 -247 348 -407 476 -605 486 -48
3 -94 -1 -129 -11z m172 -299 c67 -29 177 -164 497 -611 178 -247 455 -632
615 -855 160 -223 559 -776 885 -1230 326 -454 725 -1007 885 -1230 160 -223
559 -776 885 -1230 326 -454 651 -904 721 -1002 145 -200 168 -240 176 -307 8
-66 -15 -107 -75 -134 -54 -25 299 -21 -5632 -52 -3282 -16 -3089 -18 -3176
35 -47 29 -91 91 -98 138 -13 79 7 118 324 602 167 256 552 846 857 1313 304
466 803 1229 1108 1697 305 468 805 1233 1111 1701 702 1076 674 1034 734
1097 74 77 121 95 183 68z"/>
<path d="M5285 7886 c-74 -45 -76 -47 -1025 -1506 -209 -321 -988 -1511 -1503
-2295 -242 -368 -482 -734 -534 -812 -51 -78 -301 -456 -554 -840 -254 -384
-471 -720 -481 -748 -38 -97 -10 -166 82 -208 44 -20 62 -20 650 -18 333 1
608 5 611 9 4 4 24 50 44 102 74 186 167 349 305 530 111 146 153 170 296 170
134 0 132 -1 293 149 158 148 267 239 376 317 91 66 134 89 288 159 l127 58 0
39 c0 29 7 45 25 62 56 52 209 110 415 158 92 22 324 28 342 10 17 -17 -84
-200 -161 -292 -75 -89 -89 -117 -73 -146 7 -12 4 -22 -10 -36 -16 -16 -19
-29 -14 -56 3 -19 11 -39 18 -44 7 -4 44 -8 82 -8 67 0 73 -2 140 -49 105 -72
172 -107 260 -135 43 -14 83 -26 88 -26 6 0 -18 21 -52 47 -70 52 -169 163
-218 246 -47 78 -45 111 15 232 27 55 69 148 92 208 39 98 55 126 66 115 2 -2
11 -39 20 -83 20 -95 42 -145 56 -124 22 34 32 103 30 219 -1 147 23 282 64
358 30 56 105 137 115 125 4 -4 3 -38 -3 -74 -9 -57 -7 -75 11 -135 52 -168
157 -287 363 -408 79 -47 154 -100 184 -130 56 -57 95 -128 95 -173 0 -64
-111 -224 -240 -346 l-80 -76 52 16 c73 21 168 65 222 103 41 28 46 29 46 12
0 -11 8 -30 18 -43 17 -20 29 -23 129 -27 129 -5 143 2 143 73 0 69 -21 87
-113 93 l-77 5 44 47 c94 100 98 147 26 285 -27 52 -50 98 -50 101 0 15 255
-56 390 -110 l105 -41 150 4 c341 10 353 9 420 -26 77 -40 165 -104 290 -213
202 -175 307 -290 414 -449 100 -149 105 -160 97 -268 -6 -75 -4 -99 9 -127 9
-19 22 -37 30 -40 23 -8 215 -229 248 -284 l32 -52 711 2 c696 3 712 3 734 23
19 17 21 28 18 71 -6 67 -18 87 -343 534 -299 412 -758 1047 -956 1320 -69 96
-181 252 -249 345 -68 94 -221 305 -340 470 -119 165 -370 512 -556 770 -187
259 -477 659 -644 890 -167 231 -349 483 -405 560 -56 77 -283 392 -505 700
-446 619 -463 641 -533 696 -59 47 -102 51 -162 15z m323 -628 c18 -33 32 -49
75 -85 15 -13 27 -27 27 -32 0 -13 -105 -121 -119 -121 -15 0 -121 104 -121
120 0 7 15 29 33 50 17 20 40 51 49 68 22 40 34 40 56 0z m-57 -514 c141 -41
272 -183 300 -326 8 -40 17 -58 29 -61 13 -3 23 -25 35 -81 9 -42 15 -85 12
-96 -3 -10 5 -38 16 -62 13 -26 23 -69 25 -108 3 -45 10 -71 22 -85 10 -11 24
-33 30 -50 9 -24 8 -31 -5 -41 -28 -21 -165 -52 -285 -65 -143 -16 -559 -17
-661 -1 -100 15 -239 59 -246 78 -8 22 15 94 33 101 10 4 14 22 14 62 1 31 9
81 20 111 12 34 15 59 9 65 -24 25 9 185 39 185 5 0 17 30 26 66 22 87 65 170
113 216 42 41 129 84 195 97 74 15 220 12 279 -5z m-1064 -563 c7 -20 23 -35
47 -45 45 -19 46 -38 4 -57 -20 -8 -39 -27 -47 -46 -18 -41 -36 -42 -56 -3 -9
17 -31 36 -50 44 -19 8 -35 22 -35 31 0 9 16 23 35 31 19 8 41 27 50 44 20 38
38 38 52 1z m2097 -156 c9 -20 26 -39 40 -44 39 -15 40 -30 3 -51 -19 -11 -39
-31 -45 -45 -16 -34 -35 -31 -57 9 -10 19 -29 39 -42 45 -31 14 -29 27 7 46
16 8 37 29 45 45 20 39 31 38 49 -5z m-2295 -301 c-6 -7 -19 -16 -29 -19 -10
-3 -23 -19 -29 -35 -12 -36 -34 -39 -49 -5 -6 13 -25 31 -42 40 -39 20 -38 38
5 64 19 11 35 26 35 34 0 7 5 18 11 24 18 18 114 -84 98 -103z m1318 -26 c31
-35 37 -74 14 -97 -14 -14 -40 -20 -104 -26 -79 -6 -217 0 -259 11 -23 7 -31
36 -18 70 24 62 29 64 195 64 144 0 152 -1 172 -22z m-116 -178 c52 -34 103
-94 126 -148 20 -47 12 -183 -16 -293 -22 -85 -89 -231 -109 -237 -12 -4 -20
12 -57 112 -10 27 -52 95 -95 150 -42 56 -82 111 -88 123 -29 53 -5 150 55
230 28 36 106 93 128 93 6 0 32 -13 56 -30z m-1276 -330 c42 -32 57 -52 65
-82 12 -41 14 -43 74 -53 46 -8 38 -20 -24 -38 -24 -7 -45 -17 -47 -23 -5 -16
117 -48 190 -48 37 -1 67 -4 67 -7 0 -10 -34 -35 -79 -58 -40 -20 -49 -21 -88
-10 -24 6 -46 9 -49 6 -3 -3 9 -22 27 -42 54 -62 189 -115 287 -113 24 0 45
-2 48 -5 11 -11 -7 -27 -30 -27 -13 0 -28 -6 -34 -13 -6 -7 -33 -14 -59 -15
-71 -3 -103 -12 -103 -28 0 -8 8 -14 19 -14 10 0 36 -12 57 -27 50 -34 109
-35 187 -3 44 18 62 22 75 14 26 -17 26 -41 -2 -69 -29 -29 -71 -40 -105 -27
-14 5 -38 5 -61 -1 -30 -8 -45 -7 -73 6 -39 19 -73 22 -81 8 -4 -5 8 -13 26
-16 18 -4 43 -16 56 -25 12 -10 40 -21 62 -25 55 -9 53 -33 -2 -37 -30 -2 -43
-8 -43 -18 0 -11 18 -17 75 -21 41 -4 109 -12 150 -18 41 -6 83 -11 93 -11 15
0 13 -4 -10 -24 -15 -13 -38 -26 -50 -30 -28 -9 -135 9 -175 29 -17 8 -38 15
-46 15 -9 0 -31 5 -49 12 -25 9 -36 9 -45 0 -16 -16 17 -52 47 -52 12 0 29 -8
39 -19 11 -12 37 -20 77 -25 75 -7 81 -11 67 -41 -9 -20 -21 -26 -60 -31 -71
-10 -58 -34 26 -47 72 -11 234 37 318 94 50 34 73 36 88 10 18 -34 11 -56 -30
-100 -34 -36 -48 -44 -93 -50 -28 -4 -67 -15 -86 -25 -24 -13 -46 -16 -80 -12
-116 14 -177 23 -193 30 -13 6 -20 3 -25 -10 -11 -29 48 -74 98 -74 22 0 48
-4 58 -9 9 -6 63 -14 120 -19 56 -5 107 -14 112 -19 7 -7 -2 -17 -26 -32 -30
-17 -46 -20 -84 -15 -32 4 -63 1 -96 -10 -37 -13 -55 -14 -78 -6 -39 13 -47
13 -47 -3 0 -24 53 -40 140 -43 89 -2 96 -7 86 -49 -12 -48 -119 -74 -216 -54
-68 15 -84 29 -100 84 -7 24 -21 52 -31 61 -11 9 -19 28 -19 41 0 12 -4 23
-10 23 -17 0 -11 -69 11 -118 59 -128 -55 -301 -171 -260 -17 5 -30 13 -30 17
0 3 20 29 45 58 46 53 65 89 65 126 0 16 -3 18 -12 9 -7 -7 -20 -12 -30 -12
-10 0 -24 -13 -33 -30 -16 -31 -61 -60 -94 -60 -36 0 -32 19 13 60 73 68 116
138 123 203 3 30 2 68 -1 83 l-7 28 -24 -42 c-13 -22 -33 -51 -44 -63 -12 -13
-21 -26 -21 -30 0 -14 -115 -70 -156 -76 -52 -7 -122 23 -164 69 -17 18 -30
35 -30 39 0 9 116 29 170 29 31 0 53 7 76 25 18 14 37 25 43 25 5 0 33 41 61
90 39 70 51 101 52 136 0 25 -2 47 -5 50 -6 7 -117 -101 -117 -114 0 -5 -17
-27 -38 -50 -28 -31 -47 -42 -68 -42 -16 0 -52 -10 -80 -21 -40 -17 -62 -20
-98 -15 -64 10 -63 36 3 65 27 11 53 21 56 21 23 0 156 68 183 94 57 53 122
160 122 201 0 7 -7 21 -16 30 -16 15 -20 11 -54 -57 -33 -68 -39 -73 -71 -76
-38 -3 -86 25 -60 35 29 12 111 105 111 126 0 17 -46 -7 -95 -49 -52 -46 -101
-58 -123 -31 -16 19 -2 34 53 58 68 30 155 106 155 136 0 13 -3 23 -6 23 -12
0 -90 -45 -114 -66 -28 -25 -94 -46 -116 -37 -8 3 -21 18 -29 34 l-15 28 42
11 c24 7 52 20 63 30 11 9 34 22 50 27 32 10 84 76 85 106 0 19 -15 18 -95 -9
l-40 -13 63 59 c61 58 62 59 62 113 0 29 -3 57 -6 60 -4 4 -20 -4 -35 -18 -24
-19 -37 -23 -71 -19 -24 3 -49 6 -55 6 -17 2 -18 0 27 49 69 76 84 119 90 269
0 10 7 6 20 -11 11 -15 45 -45 75 -69z m1959 -487 c19 -27 51 -57 70 -67 49
-26 49 -59 0 -88 -19 -11 -47 -38 -60 -59 -31 -49 -56 -50 -87 -4 -13 19 -42
48 -65 65 -23 17 -42 32 -42 34 0 18 17 39 41 51 16 9 43 38 61 65 18 28 36
50 40 50 5 0 23 -21 42 -47z m1385 -231 c6 -32 22 -74 36 -94 14 -20 25 -41
25 -47 0 -5 10 -17 22 -25 l21 -15 -27 -11 c-24 -9 -32 -7 -58 15 -16 14 -33
25 -38 25 -25 0 -10 -88 19 -114 9 -8 37 -26 64 -39 52 -28 50 -34 -17 -43
-33 -5 -52 -2 -70 10 -35 22 -38 21 -34 -16 2 -26 15 -42 63 -80 32 -26 69
-48 82 -48 28 0 30 -16 3 -25 -20 -6 -22 -11 -24 -50 -1 -17 -7 -20 -36 -17
-19 1 -46 5 -60 8 l-25 6 23 -25 c23 -25 118 -74 177 -93 46 -14 45 -47 -2
-78 -48 -33 -91 -33 -122 -1 -13 14 -31 25 -41 25 -27 0 -70 39 -70 63 -1 12
-7 36 -14 52 l-13 30 -13 -42 c-11 -37 -11 -48 4 -81 9 -21 26 -44 37 -51 44
-26 170 -133 179 -151 23 -44 0 -88 -40 -75 -11 3 -32 17 -48 29 -33 27 -72
39 -72 22 0 -7 16 -27 35 -46 35 -34 35 -35 13 -43 -12 -4 -34 -5 -50 -2 -30
7 -35 -1 -15 -26 18 -24 67 -46 118 -54 70 -10 79 -19 48 -50 -54 -54 -153
-39 -200 30 -13 18 -35 40 -50 49 -34 20 -89 82 -89 101 0 8 -4 15 -10 15 -17
0 -11 -69 12 -123 32 -77 53 -103 108 -134 53 -30 59 -42 34 -67 -20 -21 -58
-30 -91 -21 -27 6 -86 59 -95 85 -4 12 -8 12 -18 3 -19 -18 -14 -75 8 -93 39
-32 50 -85 14 -73 -36 13 -85 57 -98 89 -8 18 -14 54 -14 79 l0 46 -33 -25
c-19 -15 -45 -26 -58 -26 -13 0 -44 -14 -68 -30 -70 -48 -132 -36 -166 31 -15
28 -15 30 10 39 15 6 46 10 70 10 85 0 205 59 205 101 0 27 -25 24 -67 -8 -32
-25 -45 -28 -107 -28 -39 0 -77 -4 -84 -8 -7 -5 -28 -6 -45 -3 -25 5 -37 16
-55 49 -25 47 -22 72 10 80 27 8 46 -1 53 -24 4 -12 16 -20 33 -20 38 -2 106
2 111 7 3 2 -11 20 -29 39 -25 25 -31 38 -23 46 7 7 17 8 29 1 11 -6 40 -13
65 -17 57 -8 100 15 176 97 15 16 15 18 -1 24 -9 4 -40 -3 -69 -13 -51 -20
-53 -20 -87 -2 -19 11 -54 19 -77 19 -33 0 -50 7 -74 28 -18 16 -29 34 -25 40
5 8 58 11 169 10 154 -2 165 0 207 22 25 14 47 26 49 27 3 2 0 8 -6 14 -8 8
-31 7 -82 -5 -70 -16 -72 -16 -100 5 -27 20 -30 20 -67 4 -57 -24 -98 -13
-151 42 -47 48 -52 81 -10 69 161 -47 211 -54 282 -35 22 6 51 13 65 16 38 9
119 64 114 78 -6 14 -168 18 -228 5 -47 -10 -77 0 -100 34 l-17 27 74 -3 c62
-3 78 0 96 16 29 26 26 36 -8 36 -22 0 -38 10 -60 37 -28 33 -29 39 -16 53 14
13 22 12 78 -9 102 -39 279 -39 239 1 -10 10 -7 17 15 35 l28 24 -51 -6 c-37
-5 -62 -2 -90 10 -21 10 -52 20 -68 24 -21 5 -34 16 -43 38 l-12 32 27 -15
c31 -16 177 -19 216 -4 38 14 31 30 -13 30 -36 0 -71 19 -71 40 0 10 37 20 78
20 27 0 64 12 80 26 2 1 -6 12 -17 23 -29 29 -26 38 13 51 18 6 42 20 51 30
10 11 21 20 25 20 4 0 13 -26 19 -58z m-974 -142 c8 -16 29 -37 45 -45 38 -20
38 -40 -1 -60 -17 -9 -35 -29 -41 -46 -13 -37 -33 -37 -53 1 -8 16 -27 37 -40
46 -32 21 -32 42 0 54 15 6 32 25 41 45 18 43 29 44 49 5z m-2720 -710 c14
-22 36 -42 50 -46 33 -8 32 -37 0 -52 -14 -7 -35 -28 -46 -47 -12 -19 -25 -35
-30 -35 -5 0 -19 15 -31 34 -13 19 -36 40 -53 48 -40 17 -38 39 6 60 22 10 41
29 49 47 7 17 16 31 21 31 5 0 20 -18 34 -40z m-1024 -26 c20 -7 59 -14 87
-16 29 -2 52 -5 52 -8 -1 -3 -7 -16 -15 -30 -9 -18 -10 -29 -3 -37 7 -9 7 -17
-1 -27 -18 -21 13 -25 74 -9 28 7 53 13 58 13 15 0 6 -38 -12 -51 -11 -8 -22
-25 -26 -38 -7 -23 -7 -23 56 -16 45 5 68 13 77 26 7 11 19 19 26 19 7 0 18
12 24 26 10 20 17 24 35 19 27 -8 47 -32 47 -57 0 -25 -71 -67 -135 -80 -78
-15 -73 -28 19 -44 33 -6 41 -3 55 15 21 27 111 41 111 17 0 -22 -70 -73 -118
-85 -45 -13 -56 -30 -19 -32 39 -2 59 2 96 21 58 29 78 33 85 14 7 -18 -10
-44 -29 -44 -6 0 -20 -9 -29 -19 -10 -11 -32 -23 -50 -27 l-31 -7 25 -9 c14
-5 48 -10 75 -11 39 -1 59 5 90 26 22 15 46 27 53 27 8 0 42 25 77 55 70 61
81 60 70 -10 -7 -50 -38 -79 -101 -97 -20 -5 -53 -27 -74 -48 -20 -21 -47 -41
-58 -45 -21 -6 -21 -7 8 -32 27 -22 36 -24 78 -18 66 9 136 30 166 50 24 16
26 16 32 1 9 -24 -21 -63 -64 -85 -52 -26 -71 -49 -51 -62 17 -11 46 -2 78 22
48 38 88 14 77 -45 -9 -46 -42 -66 -111 -66 -53 0 -55 -1 -45 -20 6 -11 21
-20 33 -20 13 0 32 -7 43 -15 10 -8 27 -15 37 -15 54 -1 -34 -60 -90 -60 -23
0 -38 8 -55 30 -13 17 -40 49 -60 71 l-38 41 0 -36 c0 -22 6 -38 16 -44 20
-11 46 -106 38 -138 -3 -12 -16 -25 -30 -28 -13 -4 -33 -16 -44 -28 -11 -12
-22 -19 -26 -16 -3 3 -8 31 -11 62 -9 86 -28 65 -28 -30 l0 -79 -44 -3 c-87
-6 -117 18 -65 53 22 14 25 22 20 48 -3 18 1 59 9 92 8 33 14 78 15 100 0 39
0 39 -40 -39 -45 -89 -133 -186 -167 -186 -22 0 -53 33 -53 58 0 7 18 21 39
29 32 12 41 22 47 47 3 17 20 44 37 59 30 28 30 29 24 113 -6 83 -26 152 -27
92 0 -28 -15 -47 -64 -81 -14 -10 -35 -36 -46 -58 -16 -31 -26 -39 -48 -39
-15 0 -37 7 -49 15 l-22 16 41 37 c62 55 118 147 118 193 0 69 -9 73 -47 24
-53 -69 -115 -93 -159 -60 -10 8 -14 15 -7 15 22 0 86 64 104 105 24 52 24 65
-1 65 -16 0 -20 7 -20 38 0 20 -5 44 -10 52 -8 12 -10 10 -10 -11 0 -30 -63
-115 -91 -124 -10 -4 -28 -3 -39 0 -20 6 -20 7 5 27 14 10 25 26 25 33 0 8 11
26 25 41 30 33 36 91 8 79 -32 -13 -63 -18 -63 -9 0 5 7 18 15 28 17 22 20 73
6 95 -7 11 -16 8 -45 -14 -40 -30 -55 -27 -38 8 31 63 33 93 13 147 -22 57
-19 76 8 64 9 -4 32 -13 52 -20z m5564 -520 c20 -33 39 -51 71 -65 54 -25 57
-47 7 -74 -22 -12 -48 -39 -63 -65 -35 -61 -53 -62 -87 -6 -15 26 -42 53 -59
61 -65 30 -67 58 -7 90 23 12 47 37 61 63 13 23 29 42 37 42 7 0 25 -21 40
-46z m-6067 -162 l49 -47 -44 -43 c-24 -23 -48 -42 -53 -42 -5 0 -17 11 -27
23 -10 13 -28 29 -41 36 -30 16 -28 36 7 61 17 11 33 29 36 40 9 29 18 25 73
-28z m6586 -240 c8 -15 26 -33 40 -40 33 -15 34 -49 2 -64 -14 -6 -30 -24 -37
-39 -15 -37 -33 -37 -55 1 -10 16 -30 34 -46 41 -36 15 -35 32 3 59 17 13 34
33 39 46 13 32 36 30 54 -4z m-6391 -304 c18 -18 41 -38 52 -45 19 -12 19 -13
-11 -40 -17 -15 -36 -38 -43 -50 -12 -23 -51 -32 -51 -13 0 5 -16 28 -35 49
-33 36 -34 40 -20 55 9 9 20 16 25 16 5 0 16 14 25 30 9 17 18 30 21 30 3 0
20 -15 37 -32z m6041 -43 l37 -35 -28 -35 c-15 -19 -33 -35 -39 -35 -14 0 -74
54 -74 67 0 5 11 19 25 31 14 12 25 26 25 32 0 18 17 11 54 -25z"/>
<path d="M4683 2583 c-26 -5 -55 -42 -71 -91 -19 -57 -6 -69 88 -79 85 -8 188
5 211 28 42 42 7 109 -67 127 -50 13 -133 20 -161 15z"/>
<path d="M6113 2419 c-61 -18 -110 -134 -67 -157 28 -15 154 -32 234 -32 62 0
74 3 95 25 44 43 26 154 -27 169 -34 9 -198 6 -235 -5z"/>
<path d="M4995 2339 c-55 -29 -105 -79 -105 -104 0 -33 38 -61 114 -84 95 -29
156 -28 194 4 38 32 76 108 67 134 -3 11 -29 31 -57 45 -67 34 -155 36 -213 5z"/>
<path d="M5549 2293 c-42 -5 -61 -23 -78 -72 -16 -50 -14 -106 7 -131 21 -26
105 -48 223 -56 164 -13 194 8 164 112 -23 81 -50 121 -88 133 -38 11 -176 20
-228 14z"/>
</g>
</svg>
